<svg xmlns="http://www.w3.org/2000/svg" xml:space="preserve" width="655.359" height="655.359" style="shape-rendering:geometricPrecision;text-rendering:geometricPrecision;image-rendering:optimizeQuality;fill-rule:evenodd;clip-rule:evenodd" viewBox="0 0 6.827 6.827"><defs><style>.fil0,.fil1{fill:#212121;fill-rule:nonzero}.fil1{fill:#66bb6a}</style></defs><g id="Layer_x0020_1"><path class="fil0" d="M2.14 1.575a.106.106 0 0 1-.144-.155c.284-.263.853-.395 1.418-.395.564 0 1.132.131 1.416.395a.106.106 0 0 1-.144.155c-.243-.224-.755-.337-1.272-.337-.518 0-1.03.113-1.273.337zm2.641 1.738a.107.107 0 0 1 .197.082c-.039.092-.082.184-.126.277-.16.337-.32.676-.32 1.27a.49.49 0 0 1-.27.427.57.57 0 0 1-.52.008.724.724 0 0 1-.329-.366.724.724 0 0 1-.328.366.56.56 0 0 1-.521-.008.49.49 0 0 1-.27-.427c0-.594-.16-.933-.32-1.27-.043-.093-.087-.185-.125-.277a.107.107 0 0 1 .197-.082c.04.095.08.181.121.268.17.359.34.72.34 1.36 0 .103.066.191.158.24a.357.357 0 0 0 .325.006c.122-.06.233-.2.291-.45a.471.471 0 0 0 .132.021c.046 0 .09-.007.132-.02.059.249.17.388.291.45a.35.35 0 0 0 .326-.006.28.28 0 0 0 .157-.24c0-.64.17-1.002.34-1.361.041-.087.082-.173.122-.268z"/><path class="fil1" d="M3.396 3.994c-.212 0-.44-.066-.44.193 0 .18.21.464.457.464.247 0 .458-.285.458-.464 0-.266-.252-.194-.475-.193z"/><g id="_453291712"><path id="_453291232" class="fil1" d="M2.685 2.262c.097 0 .17.06.22.143a.59.59 0 0 1 .077.281c0 .109-.037.169-.108.204a.406.406 0 0 1-.189.03.534.534 0 0 1-.282-.096c-.082-.057-.142-.138-.142-.233s.06-.176.142-.233a.534.534 0 0 1 .282-.096zm.038.252c-.014-.022-.027-.038-.038-.038a.306.306 0 0 0-.16.056c-.03.02-.05.042-.05.059 0 .017.02.039.05.06.05.034.113.055.16.055a.35.35 0 0 0 .093-.006c.007-.003-.01 0-.01-.014a.362.362 0 0 0-.045-.172z"/><path id="_453290968" class="fil1" d="M4.142 2.476c-.011 0-.025.016-.038.038a.362.362 0 0 0-.046.172c0 .014-.016.011-.01.014a.35.35 0 0 0 .094.006c.047 0 .11-.021.16-.056.029-.02.05-.042.05-.06 0-.016-.021-.038-.05-.058a.306.306 0 0 0-.16-.056zm-.22-.071c.05-.083.122-.143.22-.143.086 0 .198.037.281.096.083.057.142.138.142.233s-.06.176-.142.233a.534.534 0 0 1-.281.096.406.406 0 0 1-.19-.03c-.07-.036-.107-.095-.107-.204a.59.59 0 0 1 .076-.281z"/></g><path class="fil0" d="M3.92 5.329a.107.107 0 0 1 .213 0c0 .141-.088.264-.231.35a.968.968 0 0 1-.489.123.968.968 0 0 1-.488-.123c-.143-.086-.232-.209-.232-.35a.107.107 0 0 1 .214 0c0 .06.048.12.127.167a.753.753 0 0 0 .38.092c.15 0 .283-.035.378-.092.08-.047.128-.106.128-.167z"/><g id="_453290632"><path id="_453291688" class="fil0" d="M2.147 1.84 2.145 2c-.004.282-.02.752-.064 1.15-.05.45-.148.819-.337.819l-.015-.001c-.089-.008-.163-.086-.22-.19a1.657 1.657 0 0 1-.146-.386c-.03-.137-.109-.25-.193-.375-.063-.093-.13-.192-.188-.31-.148-.305-.17-.541-.115-.728.057-.193.193-.328.36-.429.036-.021.087-.054.143-.09.116-.076.256-.167.322-.2.27-.138.396-.115.46.009.04.08.028.192.013.326-.008.076-.018.16-.018.246zm-.214.157.001-.156c0-.095.01-.187.02-.27.01-.099.02-.181.007-.206 0-.002-.045.02-.172.085-.06.03-.193.117-.303.187-.064.042-.122.08-.149.096-.125.076-.227.173-.266.306-.041.138-.02.323.103.575.052.107.114.198.172.284.096.142.185.272.225.446.02.084.066.228.123.331a.518.518 0 0 0 .05.08c.043 0 .087-.283.125-.628.044-.394.06-.855.064-1.13z"/><path id="_453291496" class="fil0" d="M4.893 1.84v.157c.005.275.021.736.064 1.13.038.345.083.629.125.629a.518.518 0 0 0 .05-.08 1.42 1.42 0 0 0 .124-.332c.04-.174.128-.304.224-.446.06-.086.12-.177.173-.284.122-.252.144-.437.103-.575-.04-.133-.14-.23-.267-.306-.027-.016-.084-.054-.149-.096a5.025 5.025 0 0 0-.302-.187 1.895 1.895 0 0 0-.173-.085c-.012.025-.003.107.008.207.01.082.02.174.02.269zM4.68 2a11.852 11.852 0 0 1-.002-.16c0-.085-.01-.17-.018-.245-.015-.134-.027-.245.014-.326.063-.124.19-.147.46-.01.066.034.206.125.321.2.057.037.107.07.143.091.167.101.304.236.36.429.056.187.034.423-.114.728-.058.118-.125.217-.189.31-.084.124-.161.238-.193.375a1.657 1.657 0 0 1-.145.386c-.058.104-.131.182-.22.19a.107.107 0 0 1-.016 0c-.188 0-.287-.369-.336-.817A13.39 13.39 0 0 1 4.68 2z"/></g></g><path style="fill:none" d="M0 0h6.827v6.827H0z"/></svg>